<mxfile host="app.diagrams.net" modified="2022-04-06T02:15:53.746Z" agent="5.0 (Windows NT 6.1; Win64; x64) AppleWebKit/537.36 (KHTML, like Gecko) Chrome/100.0.4896.60 Safari/537.36" etag="j6M7hNB5SfrKPNPDnDSs" version="17.4.0" type="github">
  <diagram id="N3gwCIWqZhKbX9w5mEa0" name="Page-1">
    <mxGraphModel dx="1102" dy="614" grid="1" gridSize="10" guides="1" tooltips="1" connect="1" arrows="1" fold="1" page="1" pageScale="1" pageWidth="1169" pageHeight="1654" math="0" shadow="0">
      <root>
        <mxCell id="0" />
        <mxCell id="1" parent="0" />
        <mxCell id="09WwTuHsZS0fro8fE326-3" style="edgeStyle=orthogonalEdgeStyle;rounded=0;orthogonalLoop=1;jettySize=auto;html=1;exitX=0.5;exitY=1;exitDx=0;exitDy=0;entryX=0.5;entryY=0;entryDx=0;entryDy=0;" edge="1" parent="1" source="09WwTuHsZS0fro8fE326-1" target="09WwTuHsZS0fro8fE326-2">
          <mxGeometry relative="1" as="geometry" />
        </mxCell>
        <mxCell id="09WwTuHsZS0fro8fE326-10" style="edgeStyle=none;rounded=0;orthogonalLoop=1;jettySize=auto;html=1;exitX=0;exitY=0.5;exitDx=0;exitDy=0;fontSize=18;endArrow=none;endFill=0;" edge="1" parent="1" source="09WwTuHsZS0fro8fE326-1">
          <mxGeometry relative="1" as="geometry">
            <mxPoint x="380" y="190" as="targetPoint" />
          </mxGeometry>
        </mxCell>
        <mxCell id="09WwTuHsZS0fro8fE326-11" style="edgeStyle=none;rounded=0;orthogonalLoop=1;jettySize=auto;html=1;exitX=1;exitY=0.5;exitDx=0;exitDy=0;fontSize=18;endArrow=none;endFill=0;" edge="1" parent="1" source="09WwTuHsZS0fro8fE326-1">
          <mxGeometry relative="1" as="geometry">
            <mxPoint x="920" y="190" as="targetPoint" />
          </mxGeometry>
        </mxCell>
        <mxCell id="09WwTuHsZS0fro8fE326-1" value="&lt;font style=&quot;font-size: 18px&quot;&gt;部门、公司采购计划、申请&lt;/font&gt;" style="rounded=1;whiteSpace=wrap;html=1;fillColor=#dae8fc;strokeColor=#6c8ebf;" vertex="1" parent="1">
          <mxGeometry x="520" y="160" width="230" height="60" as="geometry" />
        </mxCell>
        <mxCell id="09WwTuHsZS0fro8fE326-5" style="edgeStyle=orthogonalEdgeStyle;rounded=0;orthogonalLoop=1;jettySize=auto;html=1;exitX=0.5;exitY=1;exitDx=0;exitDy=0;entryX=0.5;entryY=0;entryDx=0;entryDy=0;" edge="1" parent="1" source="09WwTuHsZS0fro8fE326-2" target="09WwTuHsZS0fro8fE326-4">
          <mxGeometry relative="1" as="geometry" />
        </mxCell>
        <mxCell id="09WwTuHsZS0fro8fE326-2" value="&lt;font style=&quot;font-size: 18px&quot;&gt;报送审批、审议&lt;/font&gt;" style="rounded=1;whiteSpace=wrap;html=1;fillColor=#dae8fc;strokeColor=#6c8ebf;" vertex="1" parent="1">
          <mxGeometry x="567.5" y="270" width="135" height="60" as="geometry" />
        </mxCell>
        <mxCell id="09WwTuHsZS0fro8fE326-4" value="" style="rounded=1;whiteSpace=wrap;html=1;fillColor=#dae8fc;strokeColor=#6c8ebf;" vertex="1" parent="1">
          <mxGeometry x="575" y="400" width="120" height="60" as="geometry" />
        </mxCell>
        <mxCell id="09WwTuHsZS0fro8fE326-7" value="&lt;b&gt;&lt;font style=&quot;font-size: 24px&quot;&gt;中心采购流程图&lt;/font&gt;&lt;/b&gt;" style="text;html=1;strokeColor=none;fillColor=none;align=center;verticalAlign=middle;whiteSpace=wrap;rounded=0;" vertex="1" parent="1">
          <mxGeometry x="510" y="100" width="250" height="30" as="geometry" />
        </mxCell>
      </root>
    </mxGraphModel>
  </diagram>
</mxfile>
